<svg xmlns="http://www.w3.org/2000/svg" viewBox="0 0 876.91 1751"><defs><style>.cls-1{fill:#abd5ff;opacity:0.6;}</style></defs><g id="Layer_2" data-name="Layer 2"><g id="Layer_1-2" data-name="Layer 1"><path class="cls-1" d="M876.91,875.5c0,164.29-45.25,318-124,449.39l-.22.37q-4.23,7.07-8.6,14l-.42.66C588.88,1586.85,314.32,1751,1.41,1751H0V791H1V0h.41A877.66,877.66,0,0,1,206.09,24.06,867.16,867.16,0,0,1,329.55,63.57q8.16,3.3,16.23,6.76,3.32,1.41,6.6,2.85,10.39,4.56,20.64,9.37,8.39,3.93,16.67,8,27.68,13.71,54.22,29.31,20.46,12,40.21,25.08,11.42,7.56,22.58,15.46,6.58,4.67,13.09,9.45,12.54,9.23,24.74,18.89,5.9,4.66,11.71,9.44,7,5.73,13.84,11.59,6.7,5.73,13.29,11.6A880.06,880.06,0,0,1,703.78,352.75q9.33,12.51,18.21,25.35,12,17.28,23.09,35.15l.87,1.41q1.66,2.67,3.3,5.36c.69,1.12,1.37,2.25,2,3.38q1.41,2.33,2.79,4.66.49.81,1,1.62,3.74,6.27,7.34,12.6,1.74,3.06,3.47,6.13c1.47,2.64,2.94,5.28,4.38,7.94a869.64,869.64,0,0,1,80.58,206.18q2,8.13,3.91,16.32c.29,1.22.57,2.44.84,3.67.41,1.84.82,3.67,1.22,5.51.25,1.15.5,2.3.74,3.45q1.11,5.16,2.15,10.33,6,30,10,60.66,1.83,14.17,3.2,28.5c.13,1.33.25,2.67.37,4Q876.88,834.75,876.91,875.5Z"/></g></g></svg>