<svg xmlns="http://www.w3.org/2000/svg" viewBox="0 0 876.91 1751"><defs><style>.cls-1{fill:#abd5ff;opacity:0.35;}</style></defs><g id="Layer_2" data-name="Layer 2"><g id="Layer_1-2" data-name="Layer 1"><path class="cls-1" d="M0,875.5c0,164.29,45.25,318,124,449.39l.22.37q4.23,7.07,8.6,14l.42.66C288,1586.85,562.59,1751,875.5,1751h1.41V791h-1V0h-.41A877.66,877.66,0,0,0,670.82,24.06,867.16,867.16,0,0,0,547.36,63.57q-8.16,3.3-16.23,6.76-3.32,1.41-6.6,2.85-10.39,4.56-20.64,9.37-8.38,3.93-16.67,8Q459.54,104.3,433,119.9q-20.46,12-40.21,25.08-11.42,7.56-22.58,15.46-6.58,4.67-13.09,9.45-12.54,9.23-24.74,18.89-5.89,4.66-11.71,9.44-7,5.73-13.84,11.59-6.7,5.73-13.29,11.6A880.06,880.06,0,0,0,173.13,352.75q-9.33,12.51-18.21,25.35-12,17.28-23.09,35.15l-.87,1.41q-1.67,2.67-3.3,5.36c-.69,1.12-1.37,2.25-2,3.38q-1.41,2.33-2.79,4.66-.5.81-1,1.62-3.73,6.27-7.34,12.6-1.74,3.06-3.47,6.13c-1.47,2.64-2.94,5.28-4.38,7.94A869.64,869.64,0,0,0,26.09,662.53q-2,8.13-3.91,16.32c-.29,1.22-.57,2.44-.84,3.67-.41,1.84-.82,3.67-1.22,5.51-.25,1.15-.5,2.3-.74,3.45q-1.11,5.16-2.15,10.33-6,30-10,60.66Q5.4,776.65,4,791c-.13,1.33-.25,2.67-.37,4Q0,834.75,0,875.5Z"/></g></g></svg>