<svg xmlns="http://www.w3.org/2000/svg" xmlns:xlink="http://www.w3.org/1999/xlink" viewBox="0 0 740.35 594.04"><defs><style>.cls-1,.cls-41{fill:#5ea7ef;}.cls-11,.cls-12,.cls-14,.cls-19,.cls-2,.cls-21,.cls-29,.cls-30,.cls-31,.cls-33,.cls-34,.cls-36,.cls-37,.cls-4{fill:none;}.cls-2{stroke:#5ea7ef;}.cls-11,.cls-12,.cls-14,.cls-19,.cls-2,.cls-21,.cls-29,.cls-3,.cls-30,.cls-31,.cls-33,.cls-34,.cls-36,.cls-37,.cls-4{stroke-miterlimit:10;}.cls-2,.cls-29{stroke-width:0.5px;}.cls-3{fill:#7bb7ff;}.cls-14,.cls-19,.cls-29,.cls-3,.cls-30,.cls-31,.cls-33,.cls-34,.cls-36,.cls-37,.cls-4{stroke:#fff;}.cls-3,.cls-4{stroke-width:0.46px;}.cls-5{font-size:15.92px;font-family:Poppins-Regular, Poppins;}.cls-15,.cls-16,.cls-17,.cls-5,.cls-6{fill:#fff;}.cls-7{fill:#dcecf4;}.cls-8{fill:#365c9e;}.cls-9{fill:#3d68a5;}.cls-10{fill:#26508c;}.cls-11{stroke:#54eac3;}.cls-11,.cls-12,.cls-19,.cls-30,.cls-31,.cls-33,.cls-34,.cls-36,.cls-37{stroke-linecap:round;}.cls-11,.cls-12{stroke-width:1.08px;}.cls-12{stroke:#69cdff;}.cls-13{fill:#54eac3;}.cls-14{stroke-width:1.13px;}.cls-15{opacity:0.05;}.cls-16{opacity:0.15;}.cls-17{opacity:0.5;}.cls-18{fill:#5492dd;}.cls-19{stroke-width:0.73px;}.cls-20{fill:#9fdfff;}.cls-21{stroke:#9fdfff;stroke-width:1.04px;}.cls-22{fill:#e1e8ea;}.cls-23{fill:url(#Degradado_sin_nombre_7);}.cls-24{fill:url(#Degradado_sin_nombre_7-2);}.cls-25{fill:url(#Degradado_sin_nombre_7-3);}.cls-26{fill:url(#Degradado_sin_nombre_7-4);}.cls-27{fill:url(#Degradado_sin_nombre_7-5);}.cls-28{fill:url(#Degradado_sin_nombre_7-6);}.cls-30{stroke-width:0.64px;}.cls-31{stroke-width:1.04px;}.cls-32{fill:#f29141;}.cls-33{stroke-width:1.17px;}.cls-34{stroke-width:1.21px;}.cls-35{fill:#fc974c;}.cls-36{stroke-width:0.74px;}.cls-37{stroke-width:0.8px;}.cls-38,.cls-39{fill:#4f88db;}.cls-39{font-size:14.59px;font-family:Poppins-Medium, Poppins;font-weight:500;}.cls-40{font-size:22.69px;fill:#9779b7;}.cls-40,.cls-41{font-family:Poppins-SemiBold, Poppins;font-weight:600;}.cls-41{font-size:18.05px;}</style><linearGradient id="Degradado_sin_nombre_7" x1="657.06" y1="450.69" x2="709.1" y2="450.69" gradientUnits="userSpaceOnUse"><stop offset="0" stop-color="#fff"/><stop offset="0.08" stop-color="#fff" stop-opacity="0.8"/><stop offset="0.17" stop-color="#fff" stop-opacity="0.62"/><stop offset="0.26" stop-color="#fff" stop-opacity="0.45"/><stop offset="0.36" stop-color="#fff" stop-opacity="0.31"/><stop offset="0.46" stop-color="#fff" stop-opacity="0.2"/><stop offset="0.57" stop-color="#fff" stop-opacity="0.11"/><stop offset="0.68" stop-color="#fff" stop-opacity="0.05"/><stop offset="0.82" stop-color="#fff" stop-opacity="0.01"/><stop offset="1" stop-color="#fff" stop-opacity="0"/></linearGradient><linearGradient id="Degradado_sin_nombre_7-2" x1="657.06" y1="446.15" x2="689.93" y2="446.15" xlink:href="#Degradado_sin_nombre_7"/><linearGradient id="Degradado_sin_nombre_7-3" x1="657.06" y1="455.23" x2="689.93" y2="455.23" xlink:href="#Degradado_sin_nombre_7"/><linearGradient id="Degradado_sin_nombre_7-4" x1="678.42" y1="202.54" x2="730.46" y2="202.54" xlink:href="#Degradado_sin_nombre_7"/><linearGradient id="Degradado_sin_nombre_7-5" x1="678.42" y1="197.99" x2="711.29" y2="197.99" xlink:href="#Degradado_sin_nombre_7"/><linearGradient id="Degradado_sin_nombre_7-6" x1="678.42" y1="207.08" x2="711.29" y2="207.08" xlink:href="#Degradado_sin_nombre_7"/></defs><g id="Layer_2" data-name="Layer 2"><g id="Layer_1-2" data-name="Layer 1"><circle class="cls-1" cx="380.23" cy="305" r="264.21" transform="translate(-104.3 358.19) rotate(-45)"/><circle class="cls-2" cx="380.23" cy="305" r="280.73" transform="translate(-104.3 358.19) rotate(-45)"/><path class="cls-3" d="M470,593.81H289.13a25.89,25.89,0,0,1-25.89-25.89h0A25.89,25.89,0,0,1,289.13,542H470a25.89,25.89,0,0,1,25.89,25.89h0A25.89,25.89,0,0,1,470,593.81Z"/><line class="cls-4" x1="377.76" y1="542.03" x2="377.76" y2="496.12"/><text class="cls-5" transform="translate(306.11 575.41)">WEB DEVELOPMENT</text><path class="cls-6" d="M115.79,136.4H644.68a12.39,12.39,0,0,1,12.39,12.39V481.9a0,0,0,0,1,0,0H103.4a0,0,0,0,1,0,0V148.79A12.39,12.39,0,0,1,115.79,136.4Z"/><rect class="cls-7" x="103.4" y="467.09" width="553.67" height="14.81"/><path class="cls-8" d="M120.77,144.43H639.69a9,9,0,0,1,9,9V473.87a0,0,0,0,1,0,0H111.77a0,0,0,0,1,0,0V153.43A9,9,0,0,1,120.77,144.43Z"/><path class="cls-9" d="M120.77,144.43h38.09a0,0,0,0,1,0,0V473.87a0,0,0,0,1,0,0H111.77a0,0,0,0,1,0,0V153.43A9,9,0,0,1,120.77,144.43Z"/><path class="cls-10" d="M120.77,144.43H639.69a9,9,0,0,1,9,9v20.31a0,0,0,0,1,0,0H111.77a0,0,0,0,1,0,0V153.43A9,9,0,0,1,120.77,144.43Z"/><path class="cls-6" d="M650.47,502.26H110a28.08,28.08,0,0,1-27.7-23.49L82,477.24H678.42l-.25,1.53A28.07,28.07,0,0,1,650.47,502.26Z"/><path class="cls-7" d="M672.27,477.24a28.07,28.07,0,0,1-26.52,18.88H105.27A28,28,0,0,1,85.57,488,28.08,28.08,0,0,0,110,502.26H650.47a28.07,28.07,0,0,0,27.7-23.49l.25-1.53Z"/><line class="cls-11" x1="180.93" y1="198.83" x2="369.73" y2="198.83"/><line class="cls-11" x1="385.31" y1="198.83" x2="448.09" y2="198.83"/><line class="cls-12" x1="180.93" y1="333.21" x2="369.73" y2="333.21"/><line class="cls-12" x1="385.31" y1="333.21" x2="422.6" y2="333.21"/><line class="cls-11" x1="180.93" y1="371.85" x2="369.73" y2="371.85"/><line class="cls-11" x1="385.31" y1="371.85" x2="422.6" y2="371.85"/><line class="cls-12" x1="180.93" y1="440.55" x2="369.73" y2="440.55"/><line class="cls-12" x1="385.31" y1="440.55" x2="448.09" y2="440.55"/><line class="cls-11" x1="310.73" y1="451.28" x2="369.73" y2="451.28"/><line class="cls-11" x1="385.31" y1="451.28" x2="448.09" y2="451.28"/><line class="cls-12" x1="222.94" y1="214.28" x2="369.73" y2="214.28"/><line class="cls-12" x1="385.31" y1="214.28" x2="408.44" y2="214.28"/><line class="cls-12" x1="222.94" y1="223.73" x2="369.73" y2="223.73"/><line class="cls-12" x1="385.31" y1="223.73" x2="425.43" y2="223.73"/><line class="cls-11" x1="222.94" y1="233.17" x2="369.73" y2="233.17"/><line class="cls-11" x1="385.31" y1="233.17" x2="408.44" y2="233.17"/><line class="cls-12" x1="222.94" y1="242.62" x2="369.73" y2="242.62"/><line class="cls-12" x1="385.31" y1="242.62" x2="425.43" y2="242.62"/><line class="cls-12" x1="222.94" y1="252.07" x2="369.73" y2="252.07"/><line class="cls-12" x1="385.31" y1="252.07" x2="408.44" y2="252.07"/><line class="cls-12" x1="278.17" y1="263.66" x2="369.73" y2="263.66"/><line class="cls-12" x1="385.31" y1="263.66" x2="433.93" y2="263.66"/><line class="cls-12" x1="278.17" y1="275.25" x2="369.73" y2="275.25"/><line class="cls-12" x1="385.31" y1="275.25" x2="433.93" y2="275.25"/><line class="cls-12" x1="278.17" y1="286.84" x2="350.85" y2="286.84"/><line class="cls-12" x1="366.43" y1="286.84" x2="433.93" y2="286.84"/><line class="cls-12" x1="278.17" y1="298.43" x2="369.73" y2="298.43"/><line class="cls-12" x1="385.31" y1="298.43" x2="433.93" y2="298.43"/><line class="cls-12" x1="278.17" y1="310.03" x2="350.85" y2="310.03"/><line class="cls-12" x1="366.43" y1="310.03" x2="433.93" y2="310.03"/><line class="cls-12" x1="278.17" y1="321.62" x2="369.73" y2="321.62"/><line class="cls-12" x1="385.31" y1="321.62" x2="433.93" y2="321.62"/><line class="cls-12" x1="301.29" y1="348.67" x2="392.86" y2="348.67"/><line class="cls-12" x1="408.44" y1="348.67" x2="457.05" y2="348.67"/><line class="cls-12" x1="301.29" y1="360.26" x2="366.43" y2="360.26"/><line class="cls-12" x1="382.01" y1="360.26" x2="457.05" y2="360.26"/><line class="cls-12" x1="338.58" y1="386.88" x2="366.43" y2="386.88"/><line class="cls-12" x1="382.01" y1="386.88" x2="433.93" y2="386.88"/><line class="cls-12" x1="347.08" y1="397.61" x2="366.43" y2="397.61"/><line class="cls-12" x1="382.01" y1="397.61" x2="448.09" y2="397.61"/><line class="cls-11" x1="338.58" y1="408.35" x2="366.43" y2="408.35"/><line class="cls-11" x1="382.01" y1="408.35" x2="433.93" y2="408.35"/><line class="cls-12" x1="347.08" y1="419.08" x2="366.43" y2="419.08"/><line class="cls-12" x1="382.01" y1="419.08" x2="448.09" y2="419.08"/><path class="cls-10" d="M143.74,198.83a8.42,8.42,0,1,1-8.42-8.42A8.42,8.42,0,0,1,143.74,198.83Z"/><path class="cls-13" d="M140.7,159.09a3.9,3.9,0,1,1-3.9-3.9A3.9,3.9,0,0,1,140.7,159.09Z"/><path class="cls-13" d="M155,159.09a3.89,3.89,0,1,1-3.89-3.9A3.89,3.89,0,0,1,155,159.09Z"/><path class="cls-13" d="M169.25,159.09a3.9,3.9,0,1,1-3.89-3.9A3.89,3.89,0,0,1,169.25,159.09Z"/><path class="cls-10" d="M143.74,232.15a8.42,8.42,0,1,1-8.42-8.42A8.43,8.43,0,0,1,143.74,232.15Z"/><circle class="cls-10" cx="135.32" cy="265.48" r="8.42"/><path class="cls-10" d="M143.74,298.8a8.42,8.42,0,1,1-8.42-8.42A8.42,8.42,0,0,1,143.74,298.8Z"/><path class="cls-14" d="M677.18,202.54h42.07a20.53,20.53,0,0,1,20.53,20.53V430.75a20.53,20.53,0,0,1-20.53,20.53h-63.6"/><circle class="cls-15" cx="593.83" cy="203.7" r="145.95"/><circle class="cls-16" cx="593.83" cy="203.7" r="135.35"/><circle class="cls-17" cx="593.83" cy="203.7" r="111.97" transform="translate(29.89 479.56) rotate(-45)"/><rect class="cls-18" x="509.21" y="40.03" width="169.21" height="317.59" rx="4.07"/><rect class="cls-6" x="514.06" y="45.6" width="159.51" height="306.47" rx="3.88"/><path class="cls-18" d="M565.61,43.77H622a0,0,0,0,1,0,0v3.66a2,2,0,0,1-2,2H567.62a2,2,0,0,1-2-2V43.77A0,0,0,0,1,565.61,43.77Z"/><line class="cls-19" x1="582.14" y1="45.6" x2="605.49" y2="45.6"/><circle class="cls-20" cx="593.82" cy="115.69" r="36.82" transform="translate(344.79 667.04) rotate(-76.72)"/><path class="cls-6" d="M603.3,115.3h-3.86a12,12,0,1,0-11.25,0h-3.85a11.52,11.52,0,0,0-11.52,11.52v3.84a4.51,4.51,0,0,0,4.5,4.5h33a4.5,4.5,0,0,0,4.5-4.5v-3.84A11.51,11.51,0,0,0,603.3,115.3Z"/><path class="cls-20" d="M611.29,334H576.35a3.53,3.53,0,0,1-3.53-3.53h0a3.53,3.53,0,0,1,3.53-3.52h34.94a3.53,3.53,0,0,1,3.52,3.52h0A3.53,3.53,0,0,1,611.29,334Z"/><path class="cls-21" d="M635.17,260.22h-82.7A13.52,13.52,0,0,1,539,246.7h0a13.52,13.52,0,0,1,13.52-13.53h82.7a13.53,13.53,0,0,1,13.52,13.53h0A13.53,13.53,0,0,1,635.17,260.22Z"/><path class="cls-22" d="M573.17,246.7a2.23,2.23,0,1,1-2.23-2.23A2.22,2.22,0,0,1,573.17,246.7Z"/><path class="cls-22" d="M584.61,246.7a2.23,2.23,0,1,1-2.23-2.23A2.22,2.22,0,0,1,584.61,246.7Z"/><path class="cls-22" d="M596.06,246.7a2.23,2.23,0,1,1-2.23-2.23A2.22,2.22,0,0,1,596.06,246.7Z"/><path class="cls-22" d="M607.5,246.7a2.23,2.23,0,1,1-2.22-2.23A2.21,2.21,0,0,1,607.5,246.7Z"/><path class="cls-22" d="M619,246.7a2.23,2.23,0,1,1-2.23-2.23A2.22,2.22,0,0,1,619,246.7Z"/><path class="cls-21" d="M635.17,218.62h-82.7A13.52,13.52,0,0,1,539,205.1h0a13.52,13.52,0,0,1,13.52-13.52h82.7a13.52,13.52,0,0,1,13.52,13.52h0A13.52,13.52,0,0,1,635.17,218.62Z"/><path class="cls-22" d="M627.81,206.5h-68a1.4,1.4,0,1,1,0-2.8h68a1.4,1.4,0,1,1,0,2.8Z"/><rect class="cls-23" x="657.06" y="446.15" width="52.04" height="9.09"/><rect class="cls-24" x="657.06" y="444.85" width="32.86" height="2.6"/><rect class="cls-25" x="657.06" y="453.93" width="32.86" height="2.6"/><rect class="cls-26" x="678.42" y="197.99" width="52.04" height="9.09"/><rect class="cls-27" x="678.42" y="196.69" width="32.86" height="2.6"/><rect class="cls-28" x="678.42" y="205.78" width="32.86" height="2.6"/><path class="cls-29" d="M92.73,411.42v43a3.44,3.44,0,0,1-3.43,3.44H60.78"/><circle class="cls-29" cx="92.73" cy="409.17" r="2.25"/><circle class="cls-29" cx="58.53" cy="457.83" r="2.25"/><circle class="cls-29" cx="68.77" cy="482.47" r="2.25"/><circle class="cls-29" cx="94.98" cy="463.58" r="2.25"/><path class="cls-29" d="M92.73,463.58H72.21A3.43,3.43,0,0,0,68.77,467v13.5"/><circle class="cls-29" cx="139.76" cy="127.03" r="2.25"/><path class="cls-29" d="M241.58,127a2.25,2.25,0,1,1-2.24-2.25A2.24,2.24,0,0,1,241.58,127Z"/><line class="cls-29" x1="237.09" y1="127.03" x2="141.83" y2="127.03"/><circle class="cls-29" cx="549.25" cy="30.1" r="2.25"/><path class="cls-29" d="M564.21,30.1A2.25,2.25,0,1,1,562,27.85,2.24,2.24,0,0,1,564.21,30.1Z"/><path class="cls-29" d="M500.59,87.38V38.05a8,8,0,0,1,8-7.95H547"/><line class="cls-29" x1="564.21" y1="30.1" x2="598.8" y2="30.1"/><circle class="cls-29" cx="506.96" cy="510.19" r="2.25"/><circle class="cls-29" cx="652.04" cy="510.19" r="2.25"/><line class="cls-29" x1="509.21" y1="510.19" x2="649.79" y2="510.19"/><path class="cls-29" d="M690.92,435.3a2.25,2.25,0,1,1-2.25-2.24A2.25,2.25,0,0,1,690.92,435.3Z"/><circle class="cls-29" cx="689.93" cy="340.82" r="2.25"/><circle class="cls-29" cx="666.72" cy="413.35" r="2.25"/><path class="cls-29" d="M666.72,411.11V386.7a1.93,1.93,0,0,1,1.94-1.93H688a1.94,1.94,0,0,0,1.94-1.94V343.07"/><path class="cls-29" d="M666.72,395.12h20a1.92,1.92,0,0,1,1.93,1.93v36"/><circle class="cls-6" cx="103.4" cy="360.26" r="29.33" transform="translate(-129.99 66.99) rotate(-22.5)"/><path class="cls-30" d="M128.68,338.42a33.41,33.41,0,0,1-38,52.74"/><path class="cls-30" d="M80.79,384.85a33.41,33.41,0,0,1,22.61-58"/><path class="cls-8" d="M107.24,346.59l-3.18,9.07-.66,1.89-5.31,15.16h2.41l2.9-8.28,1.51-4.32,4.74-13.52Z"/><path class="cls-8" d="M121.44,358.46l-9.67-3.82-1.28-.5v2.3l1.28.49,8.59,3.31-8.59,3.31-1.28.49v2.3l1.28-.51,10.36-4.09.78-.31V359Z"/><path class="cls-8" d="M96.3,354.14,83.88,359v2.39l12.42,4.91V364l-9.87-3.8,9.87-3.8Z"/><circle class="cls-6" cx="189.46" cy="54.77" r="47.63" transform="translate(16.76 150.01) rotate(-45)"/><path class="cls-31" d="M230.51,19.3A54.27,54.27,0,0,1,168.8,105"/><path class="cls-31" d="M152.75,94.71A54.25,54.25,0,0,1,189.46.52"/><path class="cls-32" d="M172.25,40v4.25H182v14.1c0,3.35-1.44,5-4.25,5a6.61,6.61,0,0,1-5.41-3.11l-2.89,3.46a10.3,10.3,0,0,0,8.42,3.94c6,0,9.19-3.16,9.19-9.59V40Z"/><path class="cls-32" d="M196.65,52.46c0-1.36,1.4-2.33,4.36-2.33a11.38,11.38,0,0,1,6,1.56L208.84,48a16.69,16.69,0,0,0-7.79-1.79c-5.61,0-9.16,2.57-9.16,6.51,0,8.3,12.86,4.56,12.86,8.53,0,1.44-1.29,2.3-4.36,2.3a14,14,0,0,1-7.25-2.07l-1.87,3.7a16.46,16.46,0,0,0,8.8,2.34c5.85,0,9.43-2.53,9.43-6.43C209.5,52.93,196.65,56.67,196.65,52.46Z"/><circle class="cls-6" cx="323.95" cy="119.06" r="53.81"/><path class="cls-33" d="M370.33,79a61.32,61.32,0,0,1-69.72,96.77"/><path class="cls-33" d="M282.47,164.19A61.3,61.3,0,0,1,324,57.77"/><circle class="cls-6" cx="63.66" cy="263.66" r="55.37"/><path class="cls-34" d="M111.38,222.43A63.08,63.08,0,0,1,39.65,322"/><path class="cls-34" d="M21,310.09A63.06,63.06,0,0,1,63.66,200.6"/><path class="cls-35" d="M40.59,256.11v7.1H31.7v-7.1H28.51v17.2H31.7v-7.37h8.89v7.37h3.2v-17.2Z"/><path class="cls-35" d="M46.19,256.11v2.7h5.7v14.5h3.19v-14.5h5.7v-2.7Z"/><path class="cls-35" d="M82,256.11H79.35l-6.71,11.4-6.83-11.4H63.18v17.2h3.05V262.05l5.65,9.29H73.3L79,261.91l0,11.4h3Z"/><path class="cls-35" d="M89.83,270.6V256.11H86.64v17.2H98.82V270.6Z"/><circle class="cls-6" cx="652.66" cy="477.66" r="55.37"/><path class="cls-34" d="M700.38,436.43A63.08,63.08,0,0,1,628.65,536"/><path class="cls-34" d="M610,524.09A63.06,63.06,0,0,1,652.66,414.6"/><circle class="cls-6" cx="56.95" cy="115.69" r="34.1" transform="translate(-68.73 144.53) rotate(-76.72)"/><path class="cls-36" d="M86.34,90.3a38.85,38.85,0,0,1-44.18,61.31"/><path class="cls-36" d="M30.67,144.28A38.83,38.83,0,0,1,57,76.85"/><circle class="cls-6" cx="439.07" cy="64.96" r="36.47"/><path class="cls-37" d="M470.5,37.8a41.55,41.55,0,0,1-47.24,65.58"/><path class="cls-37" d="M411,95.54a41.54,41.54,0,0,1,28.1-72.12"/><path class="cls-38" d="M426,70.44a5.66,5.66,0,1,1,0-11.32,5.63,5.63,0,0,1,4.3,1.89l1.94-1.82a8.16,8.16,0,0,0-6.37-2.69c-4.95,0-8.63,3.47-8.63,8.28s3.68,8.28,8.6,8.28a8.18,8.18,0,0,0,6.4-2.69l-1.94-1.84A5.58,5.58,0,0,1,426,70.44Z"/><path class="cls-38" d="M436.93,61.17c0-1.22,1-2.19,3.5-2.19a9,9,0,0,1,4.44,1.27l.94-2.32a10.16,10.16,0,0,0-5.36-1.43c-4.41,0-6.48,2.21-6.48,4.81,0,6,9.57,3.7,9.57,7.17,0,1.2-1.06,2.1-3.57,2.1a8.92,8.92,0,0,1-5.31-1.77l-1,2.32A10.39,10.39,0,0,0,440,73.06c4.42,0,6.51-2.21,6.51-4.78C446.48,62.37,436.93,64.6,436.93,61.17Z"/><path class="cls-38" d="M451.41,61.17c0-1.22,1-2.19,3.5-2.19a8.92,8.92,0,0,1,4.43,1.27l1-2.32a10.18,10.18,0,0,0-5.36-1.43c-4.42,0-6.49,2.21-6.49,4.81,0,6,9.57,3.7,9.57,7.17,0,1.2-1.06,2.1-3.57,2.1a9,9,0,0,1-5.31-1.77l-1,2.32a10.35,10.35,0,0,0,6.34,1.93c4.42,0,6.52-2.21,6.52-4.78C461,62.37,451.41,64.6,451.41,61.17Z"/><path class="cls-29" d="M373.89,11.87l-5.89.3.31-5.88a20.4,20.4,0,0,0-7.61-3.14l-3.95,4.36-3.94-4.36a20.4,20.4,0,0,0-7.61,3.14l.3,5.88-5.88-.3a20.4,20.4,0,0,0-3.14,7.61l4.36,3.94-4.36,3.95a20.28,20.28,0,0,0,3.14,7.6l5.88-.3-.3,5.89a20.4,20.4,0,0,0,7.61,3.14l3.94-4.37,3.95,4.37a20.4,20.4,0,0,0,7.61-3.14L368,34.67l5.89.3a20.28,20.28,0,0,0,3.14-7.6l-4.37-3.95L377,19.48A20.4,20.4,0,0,0,373.89,11.87Z"/><path class="cls-29" d="M365.8,23.42a9,9,0,1,1-9.05-9A9,9,0,0,1,365.8,23.42Z"/><path class="cls-29" d="M581.35,404.05l-5.89.3.3-5.89a20.62,20.62,0,0,0-7.6-3.14l-3.95,4.37-3.94-4.37a20.73,20.73,0,0,0-7.61,3.14l.3,5.89-5.89-.3a20.73,20.73,0,0,0-3.14,7.61l4.37,3.94-4.37,3.95a20.69,20.69,0,0,0,3.14,7.6l5.89-.3-.3,5.89a20.73,20.73,0,0,0,7.61,3.14l3.94-4.37,3.95,4.37a20.62,20.62,0,0,0,7.6-3.14l-.3-5.89,5.89.3a20.52,20.52,0,0,0,3.14-7.6l-4.37-3.95,4.37-3.94A20.56,20.56,0,0,0,581.35,404.05Z"/><path class="cls-29" d="M573.25,415.6a9,9,0,1,1-9-9A9,9,0,0,1,573.25,415.6Z"/><path class="cls-6" d="M56.29,353.11a14.47,14.47,0,0,0-2.18-5.27L50,348l.21-4.08A14.18,14.18,0,0,0,45,341.78l-2.73,3-2.74-3A14.24,14.24,0,0,0,34.2,344l.21,4.08-4.08-.2a14.13,14.13,0,0,0-2.18,5.27l3,2.74-3,2.74a14.13,14.13,0,0,0,2.18,5.27l4.08-.21-.21,4.09a14.24,14.24,0,0,0,5.28,2.18l2.74-3,2.73,3a14.18,14.18,0,0,0,5.28-2.18L50,363.65l4.09.21a14.47,14.47,0,0,0,2.18-5.27l-3-2.74Zm-14.07,9a6.27,6.27,0,1,1,6.27-6.27A6.28,6.28,0,0,1,42.22,362.12Z"/><path class="cls-6" d="M650.16,11.64A14.47,14.47,0,0,0,648,6.37l-4.09.2.21-4.08A14.18,14.18,0,0,0,638.82.31l-2.73,3-2.74-3a14.24,14.24,0,0,0-5.28,2.18l.21,4.08-4.08-.2A14.13,14.13,0,0,0,622,11.64l3,2.74-3,2.74a14.13,14.13,0,0,0,2.18,5.27l4.08-.21-.21,4.09a14.24,14.24,0,0,0,5.28,2.18l2.74-3,2.73,3a14.18,14.18,0,0,0,5.28-2.18l-.21-4.09,4.09.21a14.47,14.47,0,0,0,2.18-5.27l-3-2.74Zm-14.07,9a6.27,6.27,0,1,1,6.27-6.27A6.28,6.28,0,0,1,636.09,20.65Z"/><text class="cls-39" transform="translate(35.13 121.4)">React</text><text class="cls-40" transform="translate(295.19 127.27)">Java</text><text class="cls-41" transform="translate(618.66 482.37)">Node Js</text></g></g></svg>